<svg width="121" height="63" viewBox="0 0 121 63" fill="none" xmlns="http://www.w3.org/2000/svg">
<g clip-path="url(#clip0_136_169)">
<rect width="121" height="63" fill="white"/>
<path fill-rule="evenodd" clip-rule="evenodd" d="M33.2012 51.3335H36.8102C38.0685 48.476 39.0077 46.3416 39.7486 44.656C39.6112 44.6652 39.4738 44.67 39.3348 44.67C38.3037 44.67 37.3329 44.4089 36.482 43.9481L33.2012 51.3335ZM46.1174 30.1109C46.8937 28.3441 47.8387 26.1945 49.0198 23.5093L50.4663 26.819L53.1399 24.7965L50.7131 19.3335H47.4154L41.4958 32.6599C41.7611 32.7622 42.0195 32.8838 42.2689 33.0238L46.1174 30.1109ZM52.6442 31.8018C55.7829 38.988 55.6603 38.7301 59.1213 46.6915C60.0953 46.0439 61.2363 45.6918 62.4186 45.6859L55.3437 29.7588L52.6442 31.8018Z" fill="#00CCFF"/>
<path fill-rule="evenodd" clip-rule="evenodd" d="M75.6992 52.6665H79.6834V20.6665H75.6992V52.6665Z" fill="#00CCFF"/>
<path fill-rule="evenodd" clip-rule="evenodd" d="M0 52.6665H3.44289V43.701V40.2321V36.9861V35.4637V24.0036H12.8562C17.7809 24.0036 20.6573 26.3805 20.6573 30.3124C20.6573 34.5176 17.3886 36.9861 12.8128 36.9861H5.13048V40.2321H12.1589L21.0062 52.6665H25.2332L15.8633 39.5924C20.6573 38.6777 24.1436 35.5694 24.1436 30.2663C24.1436 27.6606 23.2722 25.4209 21.7903 23.8664C19.8727 21.855 16.8656 20.6665 13.1177 20.6665H0V52.6665Z" fill="black"/>
<path fill-rule="evenodd" clip-rule="evenodd" d="M92.9648 20.6665H96.2848L116.072 46.3122V20.6665H119.526V52.6665H116.699L96.4194 26.4266V52.6665H92.9648V20.6665Z" fill="black"/>
<path fill-rule="evenodd" clip-rule="evenodd" d="M43.5846 37.1431L73.7271 14.6093C74.4727 15.1145 75.3699 15.4091 76.3354 15.4091C78.9174 15.4091 81.0115 13.3031 81.0115 10.7045C81.0115 8.10599 78.9174 6 76.3354 6C73.7533 6 71.6598 8.10599 71.6598 10.7045C71.6598 11.4373 71.8266 12.1311 72.1231 12.7493L42.1605 35.1486C41.3551 34.4865 40.3262 34.0895 39.2054 34.0895C36.6229 34.0895 34.5293 36.1955 34.5293 38.794C34.5293 41.3921 36.6229 43.4986 39.2054 43.4986C40.6043 43.4986 41.8599 42.8798 42.7167 41.9L57.6424 50.7209C57.5348 51.1163 57.4771 51.5329 57.4771 51.9626C57.4771 54.5607 59.5707 56.6667 62.1527 56.6667C64.7353 56.6667 66.8283 54.5607 66.8283 51.9626C66.8283 49.3641 64.7353 47.2581 62.1527 47.2581C60.8782 47.2581 59.7228 47.7718 58.8796 48.6038L43.796 39.6889C43.8511 39.3991 43.8805 39.1002 43.8805 38.794C43.8805 38.2128 43.7761 37.6574 43.5846 37.1431Z" fill="#00CCFF"/>
</g>
<defs>
<clipPath id="clip0_136_169">
<rect width="121" height="63" fill="white"/>
</clipPath>
</defs>
</svg>
